<svg id="Layer_2" data-name="Layer 2" xmlns="http://www.w3.org/2000/svg" xmlns:xlink="http://www.w3.org/1999/xlink" viewBox="0 0 613.87012 508.23657">
  <defs>
    <style>
      .cls-1, .cls-3 {
        fill: #fff;
      }

      .cls-2 {
        fill: url(#linear-gradient);
      }

      .cls-3 {
        opacity: 0.75;
      }

      .cls-4 {
        fill: #4349a8;
      }
    </style>
    <linearGradient id="linear-gradient" x1="232.50099" y1="511.32335" x2="383.4004" y2="511.32335" gradientTransform="translate(-48.03495 -275.26118) rotate(-10)" gradientUnits="userSpaceOnUse">
      <stop offset="0" stop-color="#cce0f4"/>
      <stop offset="0.19205" stop-color="#c8d8eb"/>
      <stop offset="0.51041" stop-color="#bcc2d1"/>
      <stop offset="0.56742" stop-color="#babecc"/>
      <stop offset="0.83842" stop-color="#d1aaff"/>
    </linearGradient>
  </defs>
  <g>
    <path class="cls-1" d="M0,334.83765a52.51666,52.51666,0,0,1,7.10938-27.30909,48.60553,48.60553,0,0,1,19.40429-18.50293,57.77525,57.77525,0,0,1,27.47754-6.51269,52.29418,52.29418,0,0,1,14.84961,2.02148,40.5247,40.5247,0,0,1,11.92383,5.585,52.20288,52.20288,0,0,1,8.81347,7.71631,49.997,49.997,0,0,1,6.55372,9.22315L77.61719,316.219A27.19183,27.19183,0,0,0,67.915,305.64331a25.14958,25.14958,0,0,0-13.92383-4.17041q-13.8501,0-22.84863,9.459-8.99854,9.45851-8.998,23.90577,0,14.44848,8.998,23.94384,8.99853,9.49512,22.84863,9.49512a24.98193,24.98193,0,0,0,13.92383-4.208,27.45569,27.45569,0,0,0,9.70215-10.6123L96.13184,362.467a55.2383,55.2383,0,0,1-6.55372,9.252,50.2658,50.2658,0,0,1-8.77636,7.77832,41.0919,41.0919,0,0,1-11.96094,5.67578,51.30584,51.30584,0,0,1-14.84961,2.06348,58.52832,58.52832,0,0,1-21.293-3.85351,52.41222,52.41222,0,0,1-17.18262-10.63575A48.10944,48.10944,0,0,1,4.14746,356.14575,54.19267,54.19267,0,0,1,0,334.83765Z"/>
    <path class="cls-1" d="M90.76953,385.385l38.957-101.16895h27.03223l38.957,101.169H171.27539l-6.36914-17.1084H121.58008L115.21,385.385Zm36.66113-36.06836h31.54981l-15.77442-43.54834Z"/>
    <path class="cls-1" d="M197.46387,385.385V284.21606H244.7041a39.12726,39.12726,0,0,1,14.52539,2.59229,29.21393,29.21393,0,0,1,10.71973,7.03613,31.21873,31.21873,0,0,1,6.43164,10.33154,35.0165,35.0165,0,0,1,2.25488,12.62745,34.52713,34.52713,0,0,1-2.25293,12.5166,31.39636,31.39636,0,0,1-6.46386,10.33154,29.33941,29.33941,0,0,1-10.7129,7.07324,38.77975,38.77975,0,0,1-14.47949,2.5918h-25.71V385.385Zm21.55273-55.02832h22.73633a15.83009,15.83009,0,0,0,10.77637-3.70264,13.60692,13.60692,0,0,0,0-19.7749,15.83522,15.83522,0,0,0-10.77637-3.70313H219.0166Z"/>
    <path class="cls-1" d="M277.7168,371.21606l11.85058-16.85058a46.141,46.141,0,0,0,14.1084,10.04394A41.98781,41.98781,0,0,0,321.71,368.27661q8.51661,0,13.03516-3.249,4.51611-3.2505,4.51758-8.10742a7.07321,7.07321,0,0,0-2.51563-5.417,16.09038,16.09038,0,0,0-6.61133-3.418q-4.09716-1.13817-9.29785-2.583-5.20166-1.44434-10.68164-2.66895a55.98052,55.98052,0,0,1-10.70215-3.56738,47.53958,47.53958,0,0,1-9.29492-5.42237,22.25255,22.25255,0,0,1-6.59082-8.35839,27.77822,27.77822,0,0,1-2.51856-12.11036q0-12.99462,10.4795-21.81689,10.47948-8.822,27.88476-8.82275,24.21094,0,39.34278,13.96289l-11.917,16.082a40.36287,40.36287,0,0,0-13.67773-8.29492,45.63619,45.63619,0,0,0-15.67383-2.79q-6.73974,0-10.5166,2.67871a8.42094,8.42094,0,0,0-3.77734,7.23047,6.11525,6.11525,0,0,0,2.499,4.84424,17.71986,17.71986,0,0,0,6.63769,3.19238q4.13818,1.13892,9.38086,2.43164,5.24268,1.29492,10.63086,2.62207a56.14,56.14,0,0,1,10.55469,3.77148,48.41277,48.41277,0,0,1,9.23438,5.6377,22.61319,22.61319,0,0,1,6.52343,8.53125,28.82779,28.82779,0,0,1,2.45606,12.17578q0,14.47705-10.36817,23.45117-10.36816,8.9751-29.92187,8.97461Q293.8623,387.23657,277.7168,371.21606Z"/>
    <path class="cls-1" d="M368.043,344.87329V284.21606H389.8916V344.387q0,10.83107,6.18457,17.36035,6.18311,6.53028,17.66309,6.5293,11.40526,0,17.51562-6.49219,6.11133-6.49218,6.11035-17.39746v-60.1709h21.84864v60.65723a49.33937,49.33937,0,0,1-2.84278,17.18262,37.674,37.674,0,0,1-8.34179,13.36816,36.16724,36.16724,0,0,1-14.248,8.73926,60.34449,60.34449,0,0,1-20.042,3.07324q-22.43994,0-34.06836-11.47949Q368.043,364.27857,368.043,344.87329Z"/>
    <path class="cls-1" d="M470.88574,385.385V284.21606h21.55274v82.209h42.88183v18.96Z"/>
    <path class="cls-1" d="M542.252,385.385V284.21606h71.61817v18.96H563.80469v21.25586h48.95508v18.96H563.80469v23.03321h50.06543v18.96Z"/>
    <path class="cls-1" d="M199.78223,506.385l38.957-101.16895h27.03222l38.957,101.169H280.28809l-6.36914-17.1084H230.59277l-6.37011,17.1084Zm36.66113-36.06836h31.5498L252.21875,426.7688Z"/>
    <path class="cls-1" d="M306.47559,506.385V405.21606h21.55273V506.385Z"/>
    <path class="cls-1" d="M339.58887,476.928a58.06624,58.06624,0,0,1,0-42.16211,48.47553,48.47553,0,0,1,10.9248-16.58692,50.05349,50.05349,0,0,1,16.81153-10.75,56.81538,56.81538,0,0,1,21.18164-3.916,55.221,55.221,0,0,1,27.14355,6.64355A48.00647,48.00647,0,0,1,434.5,428.76a57.2583,57.2583,0,0,1,0,54.17871,48.054,48.054,0,0,1-18.84961,18.64062,55.12342,55.12342,0,0,1-27.14355,6.65723,56.72156,56.72156,0,0,1-21.18164-3.92285,50.037,50.037,0,0,1-16.81153-10.76953A48.545,48.545,0,0,1,339.58887,476.928Zm18.18261-21.08985q0,14.44776,8.44239,23.94336,8.44335,9.49512,22.293,9.49512,13.77538,0,22.21875-9.49512t8.44336-23.94336q0-14.52246-8.44336-23.94433-8.44337-9.42042-22.21875-9.4209-13.92481,0-22.32911,9.4209Q357.771,441.31568,357.77148,455.83813Z"/>
  </g>
  <g>
    <path class="cls-2" d="M355.234,91.61236l54.78052,65.28488c20.0482,23.89251,16.24907,60.071-8.46787,80.81094-24.72585,20.74745-61.00548,18.19907-81.05367-5.69344l-54.43208-64.86962A121.67534,121.67534,0,0,0,353.85254,95.0565C354.33111,93.91787,354.7862,92.76945,355.234,91.61236Z"/>
    <path class="cls-3" d="M355.24018,156.45587c-6.339-11.47517,9.49972-36.147,9.49972-36.147l36.078,42.64463a22.14989,22.14989,0,0,1-3.03721,31.177h0a10.53918,10.53918,0,0,1-14.83443-1.44514h0S360.46609,165.91614,355.24018,156.45587Z"/>
    <path class="cls-4" d="M295.22223,20.09311,349.94,85.30316c-.44341,1.16234-.89417,2.31592-1.36859,3.4595a120.45829,120.45829,0,0,1-87.80053,72.078L205.70069,95.2106c-20.27045-24.15738-16.67362-60.55884,8.05222-81.30629A59.30346,59.30346,0,0,1,231.02423,3.78056,58.484,58.484,0,0,1,256.15444.1683c.68431.052,1.35972.11144,2.04081.196A56.17278,56.17278,0,0,1,295.22223,20.09311Z"/>
    <ellipse class="cls-1" cx="252.72213" cy="23.40266" rx="24.02177" ry="14.82838"/>
  </g>
</svg>
